<?xml version="1.0" encoding="UTF-8" standalone="no"?><!DOCTYPE svg PUBLIC "-//W3C//DTD SVG 1.1//EN" "http://www.w3.org/Graphics/SVG/1.1/DTD/svg11.dtd"><!-- Generated by graphviz version 2.40.1 (20161225.0304)
 --><!-- Title: G Pages: 1 --><svg xmlns="http://www.w3.org/2000/svg" xmlns:xlink="http://www.w3.org/1999/xlink" width="601pt" height="188pt" viewBox="0.00 0.00 601.28 188.00">
<g id="graph0" class="graph" transform="scale(1 1) rotate(0) translate(4 184)">
<title>G</title>
<polygon fill="#ffffff" stroke="transparent" points="-4,4 -4,-184 597.2775,-184 597.2775,4 -4,4"/>
<!-- NumberWang.Wang() -->
<g id="node1" class="node">
<title>NumberWang.Wang()</title>
<ellipse fill="none" stroke="#000000" cx="205.1817" cy="-162" rx="97.7802" ry="18"/>
<text text-anchor="middle" x="205.1817" y="-157.8" font-family="Times,serif" font-size="14.00" fill="#000000">NumberWang.Wang()</text>
</g>
<!-- NumberWang.Wong() -->
<g id="node2" class="node">
<title>NumberWang.Wong()</title>
<ellipse fill="none" stroke="#000000" cx="98.1817" cy="-90" rx="98.3638" ry="18"/>
<text text-anchor="middle" x="98.1817" y="-85.8" font-family="Times,serif" font-size="14.00" fill="#000000">NumberWang.Wong()</text>
</g>
<!-- NumberWang.Wang()&#45;&gt;NumberWang.Wong() -->
<g id="edge1" class="edge">
<title>NumberWang.Wang()-&gt;NumberWang.Wong()</title>
<path fill="none" stroke="#000000" d="M145.1018,-147.6028C122.8901,-138.3333 102.4036,-126.0317 90.2992,-115.1772"/>
<polygon fill="#000000" stroke="#000000" points="92.7972,-112.7254 83.3402,-107.9489 87.7544,-117.5804 92.7972,-112.7254"/>
</g>
<!-- NumberWang.Wang()&#45;&gt;NumberWang.Wong() -->
<g id="edge7" class="edge">
<title>NumberWang.Wang()-&gt;NumberWang.Wong()</title>
<path fill="none" stroke="#000000" d="M173.9843,-144.937C159.0401,-135.5512 141.3454,-123.7646 126.7562,-113.5178"/>
<polygon fill="#000000" stroke="#000000" points="128.7465,-110.6385 118.5695,-107.6924 124.6881,-116.3419 128.7465,-110.6385"/>
</g>
<!-- NumberWang.Wang()&#45;&gt;NumberWang.Wong() -->
<g id="edge10" class="edge">
<title>NumberWang.Wang()-&gt;NumberWang.Wong()</title>
<path fill="none" stroke="#000000" d="M184.9037,-144.3868C171.6765,-134.8323 154.1086,-122.9158 138.1996,-112.6745"/>
<polygon fill="#000000" stroke="#000000" points="139.8857,-109.5989 129.57,-107.1829 136.1275,-115.5046 139.8857,-109.5989"/>
</g>
<!-- NumberWang.Wang()&#45;&gt;NumberWang.Wong() -->
<g id="edge16" class="edge">
<title>NumberWang.Wang()-&gt;NumberWang.Wong()</title>
<path fill="none" stroke="#000000" d="M207.9431,-143.8314C197.6489,-133.5253 178.7358,-120.6108 158.5254,-110.0148"/>
<polygon fill="#000000" stroke="#000000" points="159.9989,-106.8382 149.4916,-105.479 156.8579,-113.094 159.9989,-106.8382"/>
</g>
<!-- NumberWang.Weng() -->
<g id="node3" class="node">
<title>NumberWang.Weng()</title>
<ellipse fill="none" stroke="#000000" cx="312.1817" cy="-90" rx="97.7802" ry="18"/>
<text text-anchor="middle" x="312.1817" y="-85.8" font-family="Times,serif" font-size="14.00" fill="#000000">NumberWang.Weng()</text>
</g>
<!-- NumberWang.Wang()&#45;&gt;NumberWang.Weng() -->
<g id="edge3" class="edge">
<title>NumberWang.Wang()-&gt;NumberWang.Weng()</title>
<path fill="none" stroke="#000000" d="M219.7997,-144.2022C232.2907,-134.4857 250.0566,-122.3685 266.8467,-112.0566"/>
<polygon fill="#000000" stroke="#000000" points="268.7381,-115.0034 275.5049,-106.851 265.1311,-109.0042 268.7381,-115.0034"/>
</g>
<!-- NumberWang.Wang()&#45;&gt;NumberWang.Weng() -->
<g id="edge14" class="edge">
<title>NumberWang.Wang()-&gt;NumberWang.Weng()</title>
<path fill="none" stroke="#000000" d="M231.0835,-144.5708C245.0431,-135.1774 262.4548,-123.4611 277.5624,-113.2953"/>
<polygon fill="#000000" stroke="#000000" points="279.8051,-116.0048 286.1477,-107.5182 275.8971,-110.1972 279.8051,-116.0048"/>
</g>
<!-- NumberWang.Wang()&#45;&gt;NumberWang.Weng() -->
<g id="edge19" class="edge">
<title>NumberWang.Wang()-&gt;NumberWang.Weng()</title>
<path fill="none" stroke="#000000" d="M241.9094,-145.1192C257.6033,-135.8945 275.2142,-124.3103 289.1261,-114.1455"/>
<polygon fill="#000000" stroke="#000000" points="291.3679,-116.839 297.2601,-108.0336 287.1629,-111.2427 291.3679,-116.839"/>
</g>
<!-- NumberWang.Wong()&#45;&gt;NumberWang.Wang() -->
<g id="edge2" class="edge">
<title>NumberWang.Wong()-&gt;NumberWang.Wang()</title>
<path fill="none" stroke="#000000" d="M95.4727,-108.221C105.791,-118.5308 124.7074,-131.4381 144.9109,-142.0234"/>
<polygon fill="#000000" stroke="#000000" points="143.4334,-145.1979 153.941,-146.5542 146.5726,-138.9412 143.4334,-145.1979"/>
</g>
<!-- NumberWang.Wong()&#45;&gt;NumberWang.Wang() -->
<g id="edge6" class="edge">
<title>NumberWang.Wong()-&gt;NumberWang.Wang()</title>
<path fill="none" stroke="#000000" d="M107.1746,-108.0423C118.8884,-117.8786 136.7783,-130.1193 154.4388,-140.4542"/>
<polygon fill="#000000" stroke="#000000" points="153.1944,-143.7721 163.6193,-145.6621 156.6484,-137.6836 153.1944,-143.7721"/>
</g>
<!-- NumberWang.Wong()&#45;&gt;NumberWang.Wang() -->
<g id="edge11" class="edge">
<title>NumberWang.Wong()-&gt;NumberWang.Wang()</title>
<path fill="none" stroke="#000000" d="M139.9288,-106.4393C156.5743,-115.5855 174.4314,-127.1507 187.8879,-137.3585"/>
<polygon fill="#000000" stroke="#000000" points="186.0307,-140.353 196.0383,-143.8314 190.3841,-134.8714 186.0307,-140.353"/>
</g>
<!-- NumberWang.Wong()&#45;&gt;NumberWang.Wang() -->
<g id="edge17" class="edge">
<title>NumberWang.Wong()-&gt;NumberWang.Wang()</title>
<path fill="none" stroke="#000000" d="M158.1146,-104.3359C180.4652,-113.6467 201.0851,-126.0356 213.1985,-136.9434"/>
<polygon fill="#000000" stroke="#000000" points="210.7006,-139.3955 220.1424,-144.2022 215.7589,-134.5567 210.7006,-139.3955"/>
</g>
<!-- NumberWang.Wanganum() -->
<g id="node4" class="node">
<title>NumberWang.Wanganum()</title>
<ellipse fill="none" stroke="#000000" cx="474.1817" cy="-18" rx="119.1917" ry="18"/>
<text text-anchor="middle" x="474.1817" y="-13.8" font-family="Times,serif" font-size="14.00" fill="#000000">NumberWang.Wanganum()</text>
</g>
<!-- NumberWang.Weng()&#45;&gt;NumberWang.Wanganum() -->
<g id="edge4" class="edge">
<title>NumberWang.Weng()-&gt;NumberWang.Wanganum()</title>
<path fill="none" stroke="#000000" d="M334.1202,-72.3868C354.3999,-61.9593 383.9776,-48.7185 411.0451,-37.9124"/>
<polygon fill="#000000" stroke="#000000" points="412.4673,-41.1142 420.4952,-34.2003 409.9079,-34.5988 412.4673,-41.1142"/>
</g>
<!-- NumberWang.Weng()&#45;&gt;NumberWang.Wanganum() -->
<g id="edge8" class="edge">
<title>NumberWang.Weng()-&gt;NumberWang.Wanganum()</title>
<path fill="none" stroke="#000000" d="M344.7336,-72.937C366.6315,-62.7229 395.8946,-49.6656 421.0959,-38.8437"/>
<polygon fill="#000000" stroke="#000000" points="422.7086,-41.9609 430.5318,-34.8162 419.9606,-35.5229 422.7086,-41.9609"/>
</g>
<!-- NumberWang.Weng()&#45;&gt;NumberWang.Wanganum() -->
<g id="edge12" class="edge">
<title>NumberWang.Weng()-&gt;NumberWang.Wanganum()</title>
<path fill="none" stroke="#000000" d="M354.7029,-73.6621C378.496,-63.5894 407.9874,-50.5542 431.7602,-39.6307"/>
<polygon fill="#000000" stroke="#000000" points="433.2913,-42.7788 440.8982,-35.4041 430.3527,-36.4254 433.2913,-42.7788"/>
</g>
<!-- NumberWang.Weng()&#45;&gt;NumberWang.Wanganum() -->
<g id="edge20" class="edge">
<title>NumberWang.Weng()-&gt;NumberWang.Wanganum()</title>
<path fill="none" stroke="#000000" d="M363.9067,-74.5542C389.9519,-64.5754 420.1733,-51.4279 442.8499,-40.321"/>
<polygon fill="#000000" stroke="#000000" points="444.6991,-43.3093 452.0723,-35.7011 441.5638,-37.0507 444.6991,-43.3093"/>
</g>
<!-- NumberWang.Wanganum()&#45;&gt;NumberWang.Wang() -->
<g id="edge5" class="edge">
<title>NumberWang.Wanganum()-&gt;NumberWang.Wang()</title>
<path fill="none" stroke="#000000" d="M442.76,-35.3972C424.2775,-55.9102 408.2488,-89.5417 383.1817,-108 364.1103,-122.0434 313.5561,-135.1159 270.4256,-144.8804"/>
<polygon fill="#000000" stroke="#000000" points="269.4948,-141.5021 260.5002,-147.101 271.0231,-148.3332 269.4948,-141.5021"/>
</g>
<!-- NumberWang.Wanganum()&#45;&gt;NumberWang.Wang() -->
<g id="edge9" class="edge">
<title>NumberWang.Wanganum()-&gt;NumberWang.Wang()</title>
<path fill="none" stroke="#000000" d="M455.0215,-36.1266C441.8991,-56.6995 425.9539,-89.7589 401.1817,-108 381.1257,-122.7684 326.2521,-136.4631 279.4528,-146.3661"/>
<polygon fill="#000000" stroke="#000000" points="278.6787,-142.9521 269.6043,-148.4207 280.1084,-149.8046 278.6787,-142.9521"/>
</g>
<!-- NumberWang.Wanganum()&#45;&gt;NumberWang.Wang() -->
<g id="edge13" class="edge">
<title>NumberWang.Wanganum()-&gt;NumberWang.Wang()</title>
<path fill="none" stroke="#000000" d="M467.9343,-36.1266C459.8991,-56.6995 443.9539,-89.7589 419.1817,-108 398.0655,-123.5491 338.3535,-137.9079 287.354,-147.9043"/>
<polygon fill="#000000" stroke="#000000" points="286.4415,-144.5157 277.2843,-149.8445 287.7659,-151.3892 286.4415,-144.5157"/>
</g>
<!-- NumberWang.Wanganum()&#45;&gt;NumberWang.Wang() -->
<g id="edge15" class="edge">
<title>NumberWang.Wanganum()-&gt;NumberWang.Wang()</title>
<path fill="none" stroke="#000000" d="M480.8471,-36.1266C477.8991,-56.6995 461.9539,-89.7589 437.1817,-108 414.9148,-124.3964 349.7309,-139.4694 293.8757,-149.4992"/>
<polygon fill="#000000" stroke="#000000" points="293.1688,-146.0697 283.927,-151.2504 294.3824,-152.9637 293.1688,-146.0697"/>
</g>
<!-- NumberWang.Wanganum()&#45;&gt;NumberWang.Wang() -->
<g id="edge18" class="edge">
<title>NumberWang.Wanganum()-&gt;NumberWang.Wang()</title>
<path fill="none" stroke="#000000" d="M493.7197,-35.7605C496.0886,-56.3054 480.1013,-89.6503 455.1817,-108 431.7265,-125.2714 360.6518,-141.0743 299.251,-151.0612"/>
<polygon fill="#000000" stroke="#000000" points="298.4234,-147.6487 289.0963,-152.6743 299.5216,-154.562 298.4234,-147.6487"/>
</g>
</g>
</svg>