<?xml version="1.0" encoding="UTF-8" standalone="no"?><!DOCTYPE svg PUBLIC "-//W3C//DTD SVG 1.1//EN" "http://www.w3.org/Graphics/SVG/1.1/DTD/svg11.dtd"><!-- Generated by graphviz version 2.40.1 (20161225.0304)
 --><!-- Title: G Pages: 1 --><svg xmlns="http://www.w3.org/2000/svg" xmlns:xlink="http://www.w3.org/1999/xlink" width="601pt" height="295pt" viewBox="0.00 0.00 601.18 294.60">
<g id="graph0" class="graph" transform="scale(1 1) rotate(0) translate(4 290.6)">
<title>G</title>
<polygon fill="#ffffff" stroke="transparent" points="-4,4 -4,-290.6 597.1817,-290.6 597.1817,4 -4,4"/>
<!-- NumberWang.Wang() -->
<g id="node1" class="node">
<title>NumberWang.Wang()</title>
<ellipse fill="none" stroke="#000000" cx="296.1817" cy="-195.6" rx="97.7802" ry="18"/>
<text text-anchor="middle" x="296.1817" y="-191.4" font-family="Times,serif" font-size="14.00" fill="#000000">NumberWang.Wang()</text>
</g>
<!-- NumberWang.Wong() -->
<g id="node2" class="node">
<title>NumberWang.Wong()</title>
<ellipse fill="none" stroke="#000000" cx="98.1817" cy="-106.8" rx="98.3638" ry="18"/>
<text text-anchor="middle" x="98.1817" y="-102.6" font-family="Times,serif" font-size="14.00" fill="#000000">NumberWang.Wong()</text>
</g>
<!-- NumberWang.Wang()&#45;&gt;NumberWang.Wong() -->
<g id="edge1" class="edge">
<title>NumberWang.Wang()-&gt;NumberWang.Wong()</title>
<path fill="none" stroke="#00ff00" d="M276.6855,-177.7326C263.3268,-166.3214 244.7302,-151.9945 226.1817,-142.8 209.7777,-134.6685 191.252,-128.1201 173.4939,-122.9543"/>
<polygon fill="#00ff00" stroke="#00ff00" points="174.2985,-119.5451 163.7255,-120.2254 172.415,-126.287 174.2985,-119.5451"/>
<text text-anchor="middle" x="256.6817" y="-147" font-family="Times,serif" font-size="14.00" fill="#000000">1</text>
</g>
<!-- NumberWang.Wang()&#45;&gt;NumberWang.Wong() -->
<g id="edge9" class="edge">
<title>NumberWang.Wang()-&gt;NumberWang.Wong()</title>
<path fill="none" stroke="#00c5cd" d="M214.7012,-185.6058C191.121,-180.2785 166.1168,-172.1134 145.1817,-159.6 133.9071,-152.8609 123.8445,-142.5274 115.9513,-132.7832"/>
<polygon fill="#00c5cd" stroke="#00c5cd" points="118.7144,-130.6347 109.8522,-124.8285 113.1593,-134.8939 118.7144,-130.6347"/>
<text text-anchor="middle" x="148.6817" y="-147" font-family="Times,serif" font-size="14.00" fill="#000000">3</text>
</g>
<!-- NumberWang.Weng() -->
<g id="node3" class="node">
<title>NumberWang.Weng()</title>
<ellipse fill="none" stroke="#000000" cx="312.1817" cy="-106.8" rx="97.7802" ry="18"/>
<text text-anchor="middle" x="312.1817" y="-102.6" font-family="Times,serif" font-size="14.00" fill="#000000">NumberWang.Weng()</text>
</g>
<!-- NumberWang.Wang()&#45;&gt;NumberWang.Weng() -->
<g id="edge3" class="edge">
<title>NumberWang.Wang()-&gt;NumberWang.Weng()</title>
<path fill="none" stroke="#c0c0c0" d="M287.0673,-177.2485C283.1847,-166.9692 280.3378,-154.0034 284.1817,-142.8 285.3212,-139.479 286.9061,-136.2283 288.7478,-133.1232"/>
<polygon fill="#c0c0c0" stroke="#c0c0c0" points="291.6757,-135.0425 294.462,-124.8206 285.9093,-131.0739 291.6757,-135.0425"/>
<text text-anchor="middle" x="287.6817" y="-147" font-family="Times,serif" font-size="14.00" fill="#000000">2</text>
</g>
<!-- NumberWang.Wang()&#45;&gt;NumberWang.Weng() -->
<g id="edge13" class="edge">
<title>NumberWang.Wang()-&gt;NumberWang.Weng()</title>
<path fill="none" stroke="#eeb422" d="M299.497,-177.2006C301.6998,-164.975 304.6342,-148.6887 307.1259,-134.8599"/>
<polygon fill="#eeb422" stroke="#eeb422" points="310.5967,-135.3342 308.9255,-124.872 303.7077,-134.0929 310.5967,-135.3342"/>
<text text-anchor="middle" x="308.6817" y="-147" font-family="Times,serif" font-size="14.00" fill="#000000">4</text>
</g>
<!-- NumberWang.Wang()&#45;&gt;NumberWang.Weng() -->
<g id="edge16" class="edge">
<title>NumberWang.Wang()-&gt;NumberWang.Weng()</title>
<path fill="none" stroke="#00bfff" d="M308.468,-177.6773C311.6165,-172.1277 314.5676,-165.829 316.1817,-159.6 318.202,-151.8036 318.371,-143.1597 317.7193,-135.1613"/>
<polygon fill="#00bfff" stroke="#00bfff" points="321.1812,-134.6372 316.4764,-125.1443 314.2344,-135.4992 321.1812,-134.6372"/>
<text text-anchor="middle" x="320.6817" y="-147" font-family="Times,serif" font-size="14.00" fill="#000000">5</text>
</g>
<!-- NumberWang.Wong()&#45;&gt;NumberWang.Wang() -->
<g id="edge2" class="edge">
<title>NumberWang.Wong()-&gt;NumberWang.Wang()</title>
<path fill="none" stroke="#00ff00" d="M123.912,-124.3406C141.0267,-135.4723 164.3022,-149.6092 186.1817,-159.6 200.726,-166.2413 216.856,-172.2321 232.1809,-177.3351"/>
<polygon fill="#00ff00" stroke="#00ff00" points="231.5184,-180.7997 242.1105,-180.5582 233.6796,-174.1417 231.5184,-180.7997"/>
<text text-anchor="middle" x="189.6817" y="-147" font-family="Times,serif" font-size="14.00" fill="#000000">1</text>
</g>
<!-- NumberWang.Wong()&#45;&gt;NumberWang.Wang() -->
<g id="edge8" class="edge">
<title>NumberWang.Wong()-&gt;NumberWang.Wang()</title>
<path fill="none" stroke="#00c5cd" d="M146.4677,-122.6595C161.7318,-128.3133 178.4528,-135.1888 193.1817,-142.8 205.0746,-148.9456 206.5118,-153.0409 218.1817,-159.6 227.5418,-164.8608 237.806,-170.0098 247.7256,-174.6938"/>
<polygon fill="#00c5cd" stroke="#00c5cd" points="246.5447,-178.004 257.0897,-179.0306 249.4865,-171.6521 246.5447,-178.004"/>
<text text-anchor="middle" x="221.6817" y="-147" font-family="Times,serif" font-size="14.00" fill="#000000">3</text>
</g>
<!-- NumberWang.Wanganum() -->
<g id="node4" class="node">
<title>NumberWang.Wanganum()</title>
<ellipse fill="none" stroke="#000000" cx="446.1817" cy="-18" rx="119.1917" ry="18"/>
<text text-anchor="middle" x="446.1817" y="-13.8" font-family="Times,serif" font-size="14.00" fill="#000000">NumberWang.Wanganum()</text>
</g>
<!-- NumberWang.Weng()&#45;&gt;NumberWang.Wanganum() -->
<g id="edge4" class="edge">
<title>NumberWang.Weng()-&gt;NumberWang.Wanganum()</title>
<path fill="none" stroke="#c0c0c0" d="M320.0695,-88.7057C325.8391,-77.3467 334.6643,-63.1646 346.1817,-54 354.5832,-47.3148 364.3317,-41.8088 374.3809,-37.2912"/>
<polygon fill="#c0c0c0" stroke="#c0c0c0" points="375.7851,-40.4979 383.6643,-33.4149 373.0878,-34.0384 375.7851,-40.4979"/>
<text text-anchor="middle" x="349.6817" y="-58.2" font-family="Times,serif" font-size="14.00" fill="#000000">2</text>
</g>
<!-- NumberWang.Weng()&#45;&gt;NumberWang.Wanganum() -->
<g id="edge11" class="edge">
<title>NumberWang.Weng()-&gt;NumberWang.Wanganum()</title>
<path fill="none" stroke="#eeb422" d="M337.3357,-89.1982C352.3013,-78.8146 371.7168,-65.4974 389.1817,-54 395.5667,-49.7967 402.4039,-45.3949 409.0469,-41.1695"/>
<polygon fill="#eeb422" stroke="#eeb422" points="411.3455,-43.8569 417.9244,-35.5521 407.6026,-37.9416 411.3455,-43.8569"/>
<text text-anchor="middle" x="392.6817" y="-58.2" font-family="Times,serif" font-size="14.00" fill="#000000">4</text>
</g>
<!-- NumberWang.Weng()&#45;&gt;NumberWang.Wanganum() -->
<g id="edge17" class="edge">
<title>NumberWang.Weng()-&gt;NumberWang.Wanganum()</title>
<path fill="none" stroke="#00bfff" d="M358.8662,-90.7676C371.5292,-85.3798 384.8579,-78.6936 396.1817,-70.8 407.0239,-63.2422 417.36,-53.0361 425.7908,-43.6115"/>
<polygon fill="#00bfff" stroke="#00bfff" points="428.5141,-45.8128 432.3938,-35.9539 423.2127,-41.2416 428.5141,-45.8128"/>
<text text-anchor="middle" x="418.6817" y="-58.2" font-family="Times,serif" font-size="14.00" fill="#000000">5</text>
</g>
<!-- NumberWang.Wanganum()&#45;&gt;NumberWang.Wang() -->
<g id="edge5" class="edge">
<title>NumberWang.Wanganum()-&gt;NumberWang.Wang()</title>
<path fill="none" stroke="#c0c0c0" d="M445.8059,-36.0816C444.4629,-58.9219 439.154,-98.4218 419.1817,-124.8 402.1124,-147.3442 375.6275,-163.9042 351.5997,-175.3146"/>
<polygon fill="#c0c0c0" stroke="#c0c0c0" points="349.8466,-172.2667 342.1887,-179.5883 352.741,-178.6402 349.8466,-172.2667"/>
<text text-anchor="middle" x="439.6817" y="-102.6" font-family="Times,serif" font-size="14.00" fill="#000000">2</text>
</g>
<!-- NumberWang.Wanganum()&#45;&gt;NumberWang.Wang() -->
<g id="edge12" class="edge">
<title>NumberWang.Wanganum()-&gt;NumberWang.Wang()</title>
<path fill="none" stroke="#eeb422" d="M452.2432,-36.1134C453.8576,-41.7745 455.3757,-48.087 456.1817,-54 460.4658,-85.4293 462.9981,-97.3046 447.1817,-124.8 431.5519,-151.9712 402.1365,-168.8232 373.3906,-179.2245"/>
<polygon fill="#eeb422" stroke="#eeb422" points="372.0374,-175.9874 363.6885,-182.5102 374.2828,-182.6176 372.0374,-175.9874"/>
<text text-anchor="middle" x="462.6817" y="-102.6" font-family="Times,serif" font-size="14.00" fill="#000000">4</text>
</g>
<!-- NumberWang.Wanganum()&#45;&gt;NumberWang.Wang() -->
<g id="edge15" class="edge">
<title>NumberWang.Wanganum()-&gt;NumberWang.Wang()</title>
<path fill="none" stroke="#00bfff" d="M461.7649,-35.9069C465.6011,-41.3591 469.1806,-47.6099 471.1817,-54 480.5867,-84.0316 482.1079,-95.6776 470.1817,-124.8 462.1039,-144.5251 455.5621,-148.8069 437.1817,-159.6 420.4848,-169.4046 401.1478,-176.5652 382.248,-181.7862"/>
<polygon fill="#00bfff" stroke="#00bfff" points="381.2171,-178.4378 372.4208,-184.3433 382.98,-185.2122 381.2171,-178.4378"/>
<text text-anchor="middle" x="481.6817" y="-102.6" font-family="Times,serif" font-size="14.00" fill="#000000">5</text>
</g>
<!-- 1 -->
<g id="node5" class="node">
<title>1</title>
<ellipse fill="#00ff00" stroke="#00ff00" cx="269.1817" cy="-268.6" rx="18" ry="18"/>
<text text-anchor="middle" x="269.1817" y="-264.4" font-family="Times,serif" font-size="14.00" fill="#000000">1</text>
</g>
<!-- 1&#45;&gt;NumberWang.Wang() -->
<g id="edge6" class="edge">
<title>1-&gt;NumberWang.Wang()</title>
<path fill="none" stroke="#00ff00" d="M275.4439,-251.6688C278.5657,-243.2286 282.4205,-232.8063 285.9564,-223.2463"/>
<polygon fill="#00ff00" stroke="#00ff00" points="289.2952,-224.3085 289.4816,-213.7153 282.7299,-221.8802 289.2952,-224.3085"/>
</g>
<!-- 2 -->
<g id="node6" class="node">
<title>2</title>
<ellipse fill="#c0c0c0" stroke="#c0c0c0" cx="323.1817" cy="-268.6" rx="18" ry="18"/>
<text text-anchor="middle" x="323.1817" y="-264.4" font-family="Times,serif" font-size="14.00" fill="#000000">2</text>
</g>
<!-- 2&#45;&gt;NumberWang.Wang() -->
<g id="edge7" class="edge">
<title>2-&gt;NumberWang.Wang()</title>
<path fill="none" stroke="#c0c0c0" d="M316.9195,-251.6688C313.7978,-243.2286 309.943,-232.8063 306.4071,-223.2463"/>
<polygon fill="#c0c0c0" stroke="#c0c0c0" points="309.6336,-221.8802 302.8819,-213.7153 303.0683,-224.3085 309.6336,-221.8802"/>
</g>
<!-- 3 -->
<g id="node7" class="node">
<title>3</title>
<ellipse fill="#00c5cd" stroke="#00c5cd" cx="98.1817" cy="-195.6" rx="18" ry="18"/>
<text text-anchor="middle" x="98.1817" y="-191.4" font-family="Times,serif" font-size="14.00" fill="#000000">3</text>
</g>
<!-- 3&#45;&gt;NumberWang.Wong() -->
<g id="edge10" class="edge">
<title>3-&gt;NumberWang.Wong()</title>
<path fill="none" stroke="#00c5cd" d="M98.1817,-177.2006C98.1817,-165.0949 98.1817,-149.0076 98.1817,-135.2674"/>
<polygon fill="#00c5cd" stroke="#00c5cd" points="101.6818,-134.872 98.1817,-124.872 94.6818,-134.8721 101.6818,-134.872"/>
</g>
<!-- 4 -->
<g id="node8" class="node">
<title>4</title>
<ellipse fill="#eeb422" stroke="#eeb422" cx="557.1817" cy="-195.6" rx="18" ry="18"/>
<text text-anchor="middle" x="557.1817" y="-191.4" font-family="Times,serif" font-size="14.00" fill="#000000">4</text>
</g>
<!-- 4&#45;&gt;NumberWang.Weng() -->
<g id="edge14" class="edge">
<title>4-&gt;NumberWang.Weng()</title>
<path fill="none" stroke="#eeb422" d="M539.9538,-189.3558C504.402,-176.47 421.6097,-146.4621 366.2577,-126.3998"/>
<polygon fill="#eeb422" stroke="#eeb422" points="367.1946,-123.0166 356.6004,-122.8995 364.8093,-129.5977 367.1946,-123.0166"/>
</g>
<!-- 5 -->
<g id="node9" class="node">
<title>5</title>
<ellipse fill="#00bfff" stroke="#00bfff" cx="575.1817" cy="-106.8" rx="18" ry="18"/>
<text text-anchor="middle" x="575.1817" y="-102.6" font-family="Times,serif" font-size="14.00" fill="#000000">5</text>
</g>
<!-- 5&#45;&gt;NumberWang.Wanganum() -->
<g id="edge18" class="edge">
<title>5-&gt;NumberWang.Wanganum()</title>
<path fill="none" stroke="#00bfff" d="M569.3714,-89.4631C564.7243,-77.9858 557.1545,-63.3752 546.1817,-54 538.3147,-47.2784 529.0958,-41.7741 519.4948,-37.2764"/>
<polygon fill="#00bfff" stroke="#00bfff" points="520.7725,-34.0158 510.2043,-33.2657 517.9981,-40.4426 520.7725,-34.0158"/>
</g>
</g>
</svg>